<svg width="91" height="55" viewBox="0 0 91 55" fill="none" xmlns="http://www.w3.org/2000/svg">
<path d="M86.0179 23.8478C71.7679 0.42667 41.2261 -7.01061 17.8028 7.23806C14.3104 9.36177 11.0987 11.9085 8.23226 14.8178C6.57459 16.5012 5.0421 18.2969 3.6348 20.1961C2.28794 22.0133 1.0749 23.9212 0 25.9111C2.11958 26.0277 4.22621 26.2996 6.30694 26.7313C14.1809 28.2852 21.4721 31.9887 27.3732 37.4231C26.3243 38.6879 25.34 40.0001 24.4162 41.3684C23.4449 42.8144 22.9269 44.5151 22.9226 46.2547C22.8923 51.0546 26.7646 54.9696 31.5649 54.9998C36.3653 55.03 40.2807 51.1582 40.3109 46.3582C40.3195 44.7827 39.9008 43.2331 39.0979 41.8778C38.0402 40.3066 36.8963 38.7915 35.6703 37.3498C50.6498 23.2133 73.4817 21.4867 90.4168 33.2103L90.5333 33.4304C89.3764 30.0808 87.8612 26.8694 86.0179 23.8478ZM31.6254 49.164C30.0281 49.164 28.4352 48.4129 28.5 46.8115C28.7201 44.7871 29.8425 42.9698 31.552 41.8691C33.3564 43 34.8328 45.1281 34.7076 46.9108C34.591 48.4129 33.1751 49.164 31.6167 49.164H31.6254ZM65.625 19.4364C52.9421 19.4364 40.7426 24.3183 31.5649 33.0721C25.5645 27.5384 18.2819 23.5932 10.3691 21.5946L9.93743 21.4608C17.9323 12.0337 30.2958 6.05535 43.609 6.05535C55.9768 5.99492 67.7748 11.261 75.9855 20.5112C72.5752 19.7904 69.1001 19.4321 65.6164 19.4364H65.625Z" fill="#FFCE3D"/>
<path d="M86.4623 24.5428C78.338 10.2294 61.6231 0.0684204 43.6562 0.0684204V6.11148C65.1758 6.18486 75.8644 20.5673 76.0328 20.5673C78.9769 20.904 86.4494 24.5428 86.4494 24.5428H86.4623Z" fill="url(#paint0_linear)"/>
<path d="M31.639 33.0592C25.6386 27.5298 18.3517 23.5845 10.4432 21.5817L9.98993 21.4479C9.98993 21.4479 4.99531 26.3082 7.78401 27.0204C15.7918 29.0751 21.6627 32.0837 27.4517 37.4102" fill="url(#paint1_linear)"/>
<path d="M65.5949 19.4149C52.3767 19.4149 38.9555 25.7342 31.5348 33.0506C27.8267 36.7239 27.3518 37.4016 27.3518 37.4016C26.3028 38.6663 25.3142 39.9828 24.3947 41.3512C23.4925 42.7022 22.9788 44.2734 22.9141 45.8964C22.9356 46.6345 23.0824 47.364 23.3457 48.0547C23.7947 49.1813 24.5717 50.1481 25.5776 50.8258C26.7215 51.5855 28.0986 51.9179 29.4627 51.7668C30.6585 51.6546 31.7852 51.1668 32.6831 50.3726C33.3177 49.833 33.8271 49.164 34.1811 48.4129C34.3192 48.0849 34.4444 47.7525 34.548 47.4115C34.1681 48.5208 32.9335 49.1381 31.578 49.1381C29.9808 49.1381 28.3879 48.387 28.4526 46.7856C28.5087 45.4087 29.9419 43.5008 31.3406 42.0375C31.7162 41.5497 35.4502 37.5009 35.6575 37.3714C43.7602 29.7442 54.466 25.4838 65.5949 25.4579" fill="url(#paint2_linear)"/>
<defs>
<linearGradient id="paint0_linear" x1="86.7012" y1="24.1283" x2="22.1325" y2="-13.1495" gradientUnits="userSpaceOnUse">
<stop stop-color="#FD8435"/>
<stop offset="0.59" stop-color="#FFCE3D" stop-opacity="0.7"/>
</linearGradient>
<linearGradient id="paint1_linear" x1="6.93751" y1="29.4284" x2="31.6947" y2="29.4284" gradientUnits="userSpaceOnUse">
<stop stop-color="#FD8435"/>
<stop offset="1" stop-color="#FFCE3D"/>
</linearGradient>
<linearGradient id="paint2_linear" x1="22.9141" y1="35.6077" x2="65.5949" y2="35.6077" gradientUnits="userSpaceOnUse">
<stop stop-color="#FD8435"/>
<stop offset="1" stop-color="#FFCE3D"/>
</linearGradient>
</defs>
</svg>
