<svg id="logo-orange" xmlns="http://www.w3.org/2000/svg" xmlns:xlink="http://www.w3.org/1999/xlink" viewBox="0 0 1181.37 832.72"><defs><style>.cls-1{fill:#ffce3d;}.cls-2{fill:url(#linear-gradient);}.cls-3{fill:url(#linear-gradient-2);}.cls-4{fill:url(#linear-gradient-3);}</style><linearGradient id="linear-gradient" x1="1039.05" y1="596.54" x2="166.3" y2="92.66" gradientUnits="userSpaceOnUse"><stop offset="0" stop-color="#fd8435"/><stop offset="0.59" stop-color="#ffce3d" stop-opacity="0.7"/></linearGradient><linearGradient id="linear-gradient-2" x1="92.62" y1="558.95" x2="427.27" y2="558.95" gradientUnits="userSpaceOnUse"><stop offset="0" stop-color="#fd8435"/><stop offset="1" stop-color="#ffce3d"/></linearGradient><linearGradient id="linear-gradient-3" x1="308.36" y1="524.05" x2="885.22" y2="524.05" xlink:href="#linear-gradient-2"/></defs><title>FINAL</title><g id="Layer_8" data-name="Layer 8"><path class="cls-1" d="M1161.5,365C1043.71,171.79,831,42.79,588.17,42.79c-187.11,0-356.33,76.59-478,200.12A675.86,675.86,0,0,0,48,315.65C29.51,340.7,56.08,398.46,84.09,404A588.48,588.48,0,0,1,368.82,548.5q-21.24,25.63-39.93,53.35A117.56,117.56,0,1,0,543.68,668a116.61,116.61,0,0,0-16.37-59.18A675.58,675.58,0,0,0,481,547.64C586.41,448.65,729.71,387,885.74,387a587.66,587.66,0,0,1,217.93,41.61c22.89,9.11,35.72-7.38,50-24.16C1162.85,393.68,1172.62,383.25,1161.5,365ZM426.19,707.18c-21.6,0-43.14-10.15-42.24-31.8.79-19.34,14.48-50,41.27-66.78,24.38,15.3,44.31,44,42.61,68.13C466.41,697,447.26,707.18,426.19,707.18ZM885.74,305.35c-178.68,0-340.12,70.46-460.36,184.33h0C345.53,416,248.27,362.56,138.9,334.52l-6.1-1.81C240.9,205.32,408,124.48,588.17,124.48,763,124.48,917.61,199,1025.53,319.9v0A673.49,673.49,0,0,0,885.74,305.35Z"/><path class="cls-2" d="M-5.27,389.83,1167.3,374.41C1057.7,180.9,831.76,43.25,588.92,43.25v81.68c290.86,1,435.35,195.42,437.38,195.46C1066.53,325.21,1167.3,374.41,1167.3,374.41Z"/><path class="cls-3" d="M427.27,785.36m-.81-295.83h0C346.61,415.8,249.35,362.41,140,334.37l-6.1-1.82s-67.53,65.7-29.8,75.36c108.23,27.72,187.56,68.44,265.82,140.44"/><path class="cls-4" d="M885.22,305.08c-178.68,0-360.09,85.43-460.36,184.33C374.72,539,368.3,548.23,368.3,548.23q-21.24,25.63-39.93,53.35a118.53,118.53,0,0,0-20,61.45c.72,13.23,1.55,17.22,5.49,29.34,4.07,12.52,16.48,28.37,30.19,37.47a79.54,79.54,0,0,0,52.67,12.74c21-2.15,31.9-10,43.57-18.85s18.63-22.69,20.55-26.55c1.68-3.35,4.32-11.47,5-13.53-5.11,15-21.83,23.26-40.14,23.26-21.59,0-43.13-10.16-42.24-31.8.77-18.6,20.1-44.4,39-64.39,5.09-6.64,55.57-61.37,58.23-63.12a2.11,2.11,0,0,0-.19-.23C587.24,448,729.19,386.76,885.22,386.76"/></g></svg>