<svg width="1076" height="880" viewBox="0 0 1076 880" fill="none" xmlns="http://www.w3.org/2000/svg">
<path d="M0 515.871C0 514.935 0 514 0 513.064C0.9 509.415 0.8 505.672 1.1 502.023C3.6 478.82 14.7 459.171 30 441.488C55.1 412.39 87.7 391.993 121.6 373.28C154.8 354.941 189.5 339.504 223.8 323.13C260.9 305.446 298.1 288.043 333.6 267.647C358.9 253.144 383 237.145 405.7 219.181C427.4 202.059 447.4 183.346 467 164.259C483.6 148.072 499.5 131.324 515.5 114.67C534.2 95.0218 553.6 75.9348 574.2 57.9706C593.7 40.942 614.9 25.8782 638.9 14.557C659.6 4.82642 681.4 -0.506704 704.7 0.0546773C706.3 0.0546773 707.9 0.0546773 709.5 0.0546773C713.5 0.0546773 717.5 0.0546773 721.5 0.0546773C723.2 0.0546773 724.8 0.0546773 726.5 0.0546773C756.8 -0.693832 785.5 6.32344 813.6 16.1476C846.1 27.4688 876.5 42.5326 905.2 60.5903C927.8 74.7184 948.9 90.5307 968.8 108.027C987.6 124.494 1004.6 142.271 1019.8 161.733C1043.9 192.702 1060.4 227.04 1069.4 264.465C1073.5 281.307 1074.5 298.242 1075.2 315.458C1075.8 332.486 1075.3 349.421 1075 366.356C1074.6 387.595 1071.3 408.46 1067 429.325C1056.3 480.972 1041.7 531.59 1024.1 581.553C1012.9 613.271 999.9 644.24 983.7 674.087C966.7 705.431 946.4 734.903 921.5 761.382C902.7 781.311 881.7 798.901 858.3 814.058C817.2 840.724 771.6 857.378 723 867.577C702.5 871.88 681.8 875.062 661 877.214C653.3 877.962 645.4 878.056 637.6 878.243C630 878.43 622.3 879.178 614.7 878.804C613 878.804 611.4 878.804 609.7 878.804C607.1 878.804 604.5 878.804 601.8 878.804C599.1 878.804 596.4 878.804 593.6 878.804C584.9 878.804 576.1 878.804 567.4 878.804C564.7 878.804 562 878.804 559.3 878.804C556.2 879.085 553 878.243 549.9 879.272C548.9 879.272 547.9 879.272 546.9 879.272C541.5 878.149 536 878.523 530.6 878.43C486.8 878.056 443.9 871.132 401.2 862.618C372.2 856.817 343.7 849.238 315.6 840.162C292.8 832.771 270.4 824.257 248.5 814.713C223.5 803.86 199.6 791.322 176.7 777.1C158 765.499 140 752.774 123.1 738.927C112.1 729.851 101.2 720.682 91.2 710.67C67.9 687.467 47 662.485 30.5 634.51C18.5 614.206 9.1 593.061 3.3 570.419C1.2 562.466 1.4 554.419 0.5 546.373C0.4 545.343 0.9 544.221 0 543.191C0 542.256 0 541.32 0 540.385C0.8 537.578 0.8 534.771 0 531.964C0 529.438 0 527.005 0 524.479C0.8 521.485 0.8 518.678 0 515.871Z" fill="#EEF5F7"/>
</svg>
